<svg xmlns="http://www.w3.org/2000/svg" width="23.608" height="23.586" viewBox="0 0 23.608 23.586">
  <g id="Anaquel" transform="translate(-807.827 -644.929)">
    <g id="Iconly_Light_Folder-3" data-name="Iconly Light Folder-3">
      <g id="Folder-5-3">
        <g id="Stroke_1-8-3" data-name="Stroke 1-8-3">
          <path id="Trazado_925" data-name="Trazado 925" d="M824.1,668.515h-8.96c-4.514,0-7.317-2.8-7.317-7.3v-8.987c0-4.842,2.149-7.3,6.386-7.3h2.3a3.4,3.4,0,0,1,2.7,1.351l1.052,1.4a1.9,1.9,0,0,0,1.5.752h3.258c4.372,0,6.409,2.243,6.409,7.06l-.029,5.722C831.406,665.718,828.608,668.515,824.1,668.515Zm-9.891-22.086c-3.425,0-4.886,1.733-4.886,5.8v8.987c0,3.687,2.12,5.8,5.817,5.8h8.96c3.688,0,5.8-2.115,5.8-5.8v0l.029-5.72c0-4-1.376-5.556-4.909-5.556h-3.26a3.408,3.408,0,0,1-2.7-1.351l-1.052-1.4a1.888,1.888,0,0,0-1.5-.752Z" fill="#8d8d8d"/>
        </g>
        <g id="Stroke_3-2-3" data-name="Stroke 3-2-3">
          <path id="Trazado_926" data-name="Trazado 926" d="M824.663,660.5H814.6a.75.75,0,0,1,0-1.5h10.064a.75.75,0,0,1,0,1.5Z" fill="#8d8d8d"/>
        </g>
      </g>
    </g>
  </g>
</svg>
