<svg xmlns="http://www.w3.org/2000/svg" width="17.352" height="20.507" viewBox="0 0 17.352 20.507">
  <g id="Location" transform="translate(-4 -2)">
    <g id="Location-2" data-name="Location" transform="translate(4 2)">
      <path id="Combined-Shape" d="M8.676,1a8.719,8.719,0,0,1,8.676,8.742c0,5.926-6.789,11.765-8.676,11.765S0,15.668,0,9.742A8.719,8.719,0,0,1,8.676,1Zm0,1.577a7.14,7.14,0,0,0-7.1,7.165c0,5.026,5.914,9.922,7.1,10.183,1.184-.262,7.1-5.158,7.1-10.183A7.14,7.14,0,0,0,8.676,2.577Zm0,3.681A3.418,3.418,0,1,1,5.259,9.677,3.422,3.422,0,0,1,8.677,6.258Zm0,1.577a1.84,1.84,0,1,0,1.84,1.841A1.843,1.843,0,0,0,8.677,7.836Z" transform="translate(0.001 -1)" fill="#f29017" fill-rule="evenodd"/>
    </g>
  </g>
</svg>
