<svg xmlns="http://www.w3.org/2000/svg" width="16.726" height="20.982" viewBox="0 0 16.726 20.982">
  <g id="Perfil" transform="translate(-4 -2)">
    <g id="Profile" transform="translate(4 2)">
      <path id="Combined-Shape" d="M16.726,17.1c0,3.48-4.773,3.883-8.362,3.883H8.107C5.82,20.976,0,20.832,0,17.078c0-3.409,4.581-3.865,8.143-3.882h.478C10.907,13.2,16.726,13.345,16.726,17.1Zm-8.362-2.32c-4.5,0-6.78.773-6.78,2.3s2.281,2.32,6.78,2.32,6.778-.773,6.778-2.3S12.862,14.779,8.364,14.779ZM8.364,0a5.607,5.607,0,0,1,0,11.213H8.33A5.607,5.607,0,0,1,8.364,0Zm0,1.508a4.1,4.1,0,0,0-.031,8.2l.031.754V9.706a4.1,4.1,0,0,0,0-8.2Z" transform="translate(0 0)" fill="#f29017" fill-rule="evenodd"/>
    </g>
  </g>
</svg>
