<svg id="Search" xmlns="http://www.w3.org/2000/svg" width="21.438" height="21.436" viewBox="0 0 21.438 21.436">
  <path id="Trazado_39" data-name="Trazado 39" d="M21.045,19.545l-4.532-4.532a1.189,1.189,0,0,0-1.678,0A7.505,7.505,0,1,1,16.947,8a7.6,7.6,0,0,1-.077,3.562,1.075,1.075,0,0,0,2.077.554,9.672,9.672,0,1,0-3.313,5.072l3.892,3.888a1.077,1.077,0,1,0,1.519-1.528Z" transform="translate(0.073 0.048)" fill="#c6c6c6"/>
  <path id="Trazado_40" data-name="Trazado 40" d="M21.193,29.624a1.056,1.056,0,0,0-1.287-.116,3.656,3.656,0,0,1-3.716.073,1.034,1.034,0,0,0-1.232.142l-.064.06a1.034,1.034,0,0,0,.18,1.635,5.815,5.815,0,0,0,6.008-.12,1.034,1.034,0,0,0,.176-1.6Z" transform="translate(-8.288 -16.73)" fill="#f29017"/>
</svg>
