<?xml version="1.0" standalone="no"?>
<!DOCTYPE svg PUBLIC "-//W3C//DTD SVG 20010904//EN"
 "http://www.w3.org/TR/2001/REC-SVG-20010904/DTD/svg10.dtd">
<svg version="1.0" xmlns="http://www.w3.org/2000/svg"
 width="512.000000pt" height="512.000000pt" viewBox="0 0 512.000000 512.000000"
 preserveAspectRatio="xMidYMid meet">

<g transform="translate(0.000000,512.000000) scale(0.100000,-0.100000)"
fill="#000000" stroke="none">
<path d="M2425 5096 c-50 -24 -2113 -1718 -2188 -1796 -23 -24 -37 -49 -37
-65 0 -33 24 -80 47 -91 10 -5 86 -11 168 -14 l150 -5 2 -1240 3 -1240 -151
-204 c-199 -269 -219 -299 -219 -327 0 -36 19 -69 50 -87 26 -16 199 -17 2310
-17 2482 0 2321 -4 2348 55 28 60 27 61 -197 365 l-151 205 0 1248 0 1247 130
0 c138 0 179 10 200 49 15 29 12 73 -8 103 -27 43 -2130 1787 -2187 1814 -72
34 -199 34 -270 0z m209 -198 c25 -18 459 -377 965 -798 l919 -765 -978 -3
c-538 -1 -1423 -1 -1966 0 l-988 3 939 774 c516 425 954 784 973 797 47 32 81
30 136 -8z m1724 -2980 l2 -1208 -980 0 -980 0 0 744 c0 440 -4 755 -9 769 -6
14 -20 35 -32 46 -23 21 -28 21 -607 21 l-584 0 -29 -29 -29 -29 0 -761 0
-761 -170 0 -170 0 0 1210 0 1210 1793 -2 1792 -3 3 -1207z m-2158 -768 l0
-940 -445 0 -445 0 0 940 0 940 445 0 445 0 0 -940z m-1090 -790 l0 -150 -306
0 c-244 0 -304 3 -297 13 6 6 56 74 111 150 l102 137 195 0 195 0 0 -150z
m3365 53 c39 -53 87 -120 108 -150 l39 -53 -1111 0 -1111 0 0 150 0 150 1003
0 1002 0 70 -97z"/>
<path d="M2426 4514 c-73 -18 -170 -68 -213 -112 -45 -45 -46 -100 -4 -143 39
-39 82 -38 141 1 127 85 253 91 372 18 172 -106 199 -349 54 -494 -93 -93
-221 -118 -350 -70 -51 20 -72 23 -97 16 -64 -19 -92 -73 -69 -131 38 -90 281
-139 442 -89 152 47 281 169 340 322 25 65 35 213 19 287 -19 88 -70 179 -141
252 -132 135 -312 187 -494 143z"/>
<path d="M2104 4066 c-72 -32 -86 -106 -30 -162 48 -48 105 -44 148 10 37 45
11 127 -47 152 -40 16 -32 16 -71 0z"/>
<path d="M1165 2796 c-73 -32 -72 -137 2 -175 15 -8 192 -11 592 -11 l571 0
32 29 c44 39 46 98 5 139 l-27 27 -573 2 c-458 2 -578 0 -602 -11z"/>
<path d="M2691 2783 c-45 -42 -46 -100 -2 -144 39 -39 97 -40 134 -4 91 92
-38 235 -132 148z"/>
<path d="M2709 2261 l-29 -29 0 -501 0 -501 29 -32 29 -33 619 -3 c432 -2 629
0 656 8 25 7 45 22 57 43 19 31 20 54 20 508 0 314 -4 487 -11 507 -22 65 7
62 -699 62 l-642 0 -29 -29z m571 -536 l0 -365 -200 0 -200 0 0 365 0 365 200
0 200 0 0 -365z m610 235 l0 -130 -205 0 -205 0 0 130 0 130 205 0 205 0 0
-130z m0 -465 l0 -135 -202 2 -203 3 -3 119 c-1 66 0 126 2 133 4 10 50 13
206 13 l200 0 0 -135z"/>
<path d="M1559 1301 c-63 -63 -20 -171 68 -171 93 1 134 106 66 174 -37 38
-94 36 -134 -3z"/>
</g>
</svg>
