<svg xmlns="http://www.w3.org/2000/svg" width="39" height="39" viewBox="0 0 39 39">
  <g id="Camera-bg" transform="translate(-234 -211)">
    <circle id="Elipse_706" data-name="Elipse 706" cx="19.5" cy="19.5" r="19.5" transform="translate(234 211)" fill="#f29017"/>
    <g id="Iconly_Bold_Camera" data-name="Iconly/Bold/Camera" transform="translate(243.643 219.979)">
      <g id="Camera" transform="translate(2 3)">
        <path id="Trazado_730" data-name="Trazado 730" d="M10.321,0a2.041,2.041,0,0,1,1.855,1.177c.1.2.238.488.383.793l.175.369h0l.086.181L12.9,2.7a.19.19,0,0,0,.167.1,3.65,3.65,0,0,1,3.644,3.64h0V11.4a3.65,3.65,0,0,1-3.644,3.64H3.644A3.645,3.645,0,0,1,0,11.4H0V6.445A3.645,3.645,0,0,1,3.644,2.8.164.164,0,0,0,3.8,2.7h0l.05-.1c.234-.493.518-1.094.685-1.427A2.029,2.029,0,0,1,6.385,0h3.936ZM8.357,5.351a3.277,3.277,0,0,0-2.332.968,3.23,3.23,0,0,0-.953,2.312A3.286,3.286,0,1,0,8.357,5.351Zm0,1.252A2.03,2.03,0,1,1,6.326,8.632h0V8.623A1.96,1.96,0,0,1,6.911,7.2,2.024,2.024,0,0,1,8.357,6.6Zm4.688-1.453a.756.756,0,1,0,.761.76A.756.756,0,0,0,13.046,5.151Z" fill="#fff"/>
      </g>
    </g>
  </g>
</svg>
