<svg xmlns="http://www.w3.org/2000/svg" width="24.439" height="23.226" viewBox="0 0 24.439 23.226">
  <g id="message-on" transform="translate(-457.739 -1178.14)">
    <g id="Iconly_Curved_Send-2" data-name="Iconly Curved Send-2">
      <g id="Send-2">
        <g id="Stroke-1-2">
          <path id="Trazado_1072" data-name="Trazado 1072" d="M471,1201.366a1.483,1.483,0,0,1-.237-.019c-2.115-.341-3.593-5.924-4.216-8.792-2.868-.623-8.451-2.1-8.792-4.215-.083-.515.064-1.271,1.235-1.947,3.258-1.879,15.9-5.759,18.035-4.625a.74.74,0,0,1,.309.31c1.138,2.138-2.745,14.778-4.624,18.034C472.135,1201.114,471.5,1201.366,471,1201.366Zm4.756-18.35c-2.686,0-12.524,2.661-16.016,4.676-.449.259-.5.422-.5.424.125.75,3.984,2.221,8.1,3.072a.752.752,0,0,1,.583.583c.851,4.111,2.322,7.968,3.086,8.095,0,0,.159-.067.411-.5,2.1-3.644,4.91-14.2,4.658-16.33A2.62,2.62,0,0,0,475.759,1183.016Z" fill="#707070"/>
        </g>
        <g id="Stroke-3-2">
          <path id="Trazado_1073" data-name="Trazado 1073" d="M467.182,1192.672a.75.75,0,0,1-.53-1.28l9.492-9.492a.75.75,0,0,1,1.061,1.06l-9.493,9.493A.747.747,0,0,1,467.182,1192.672Z" fill="#707070"/>
        </g>
      </g>
    </g>
    <g id="Elipse_703" data-name="Elipse 703">
      <circle id="Elipse_735" data-name="Elipse 735" cx="4.144" cy="4.144" r="4.144" transform="translate(473.889 1178.14)" fill="#f29017"/>
    </g>
  </g>
</svg>
