<svg xmlns="http://www.w3.org/2000/svg" width="18.639" height="21.548" viewBox="0 0 18.639 21.548">
  <g id="notification-on" transform="translate(-407.216 -1178.164)">
    <g id="Iconly_Light_Notification-3" data-name="Iconly Light Notification-3">
      <g id="Notification-4-3">
        <g id="Stroke_1-13-3" data-name="Stroke 1-13-3">
          <path id="Trazado_1062" data-name="Trazado 1062" d="M416.3,1195.644c-4.591,0-8.74-.325-9.079-4.241a5.4,5.4,0,0,1,.928-3.172,5,5,0,0,0,.852-3.045c0-3.177,2.934-6.579,7.3-6.579s7.3,3.4,7.3,6.58a5,5,0,0,0,.853,3.046,5.34,5.34,0,0,1,.93,3.1C425.036,1195.319,420.887,1195.644,416.3,1195.644Zm0-15.537c-3.418,0-5.8,2.677-5.8,5.079A6.409,6.409,0,0,1,409.43,1189a3.858,3.858,0,0,0-.717,2.334c.162,1.839,1.381,2.806,7.582,2.806,6.168,0,7.425-1.009,7.586-2.871a3.827,3.827,0,0,0-.719-2.268,6.408,6.408,0,0,1-1.067-3.818C422.1,1182.784,419.714,1180.107,416.3,1180.107Z" fill="#707070"/>
        </g>
        <g id="Stroke_3-7-3" data-name="Stroke 3-7-3">
          <path id="Trazado_1063" data-name="Trazado 1063" d="M416.244,1199.712a3.816,3.816,0,0,1-2.453-.889,3.865,3.865,0,0,1-.5-.5.75.75,0,1,1,1.151-.962,2.351,2.351,0,0,0,3.617,0,.75.75,0,1,1,1.153.959,3.826,3.826,0,0,1-2.607,1.373C416.484,1199.707,416.364,1199.712,416.244,1199.712Z" fill="#707070"/>
        </g>
      </g>
    </g>
    <g id="Elipse_695-2" data-name="Elipse 695-2">
      <circle id="Elipse_734" data-name="Elipse 734" cx="4.144" cy="4.144" r="4.144" transform="translate(417.567 1178.164)" fill="#f29017"/>
    </g>
  </g>
</svg>
